# xmcd
#
# Track frame offsets:
#	150
#	10514
#	24019
#	36341
#	47127
#	56055
#	67271
#	79386
#	89197
#	100390
#	113096
#	122638
#	131435
#	144064
#	154320
#	163947
#	175632
#	187179
#	200576
#	211139
#	222593
#	233709
#	243912
#	253915
#	265431
#	275895
#	286835
#	299342
#	311081
#	321476
#
# Disc length: 4434 seconds
#
# Revision: 0
# Processed by: cddbd v1.4PL0 Copyright (c) Steve Scherf et al.
# Submitted via: EasyCDDAExtractor 4.6.9.1
#
DISCID=d511501e
DTITLE=Connie Smith - Born To Sing - Disc 4
DYEAR=2001
DGENRE=Country
TTITLE0=On And On And On
TTITLE1=Everybody Loves Somebody
TTITLE2=That's What Lonesome Is
TTITLE3=In Case You Ever Change Your Mind
TTITLE4=It Comes And Goes
TTITLE5=My Whole World Is Falling Down
TTITLE6=It's Not The End Of Everything
TTITLE7=Cincinnati, Ohio
TTITLE8=I Love You Enough (For Both Of Us)
TTITLE9=Only For Me
TTITLE10=I'll Come Running
TTITLE11=Easy Come - Easy Go
TTITLE12=I Love You Drops
TTITLE13=Don't Feel Sorry For Me
TTITLE14=I'll Love You Enough (For Both Of Us)
TTITLE15=Burning Bridges
TTITLE16=Don't Keep Me Lonely Too Long
TTITLE17=There Goes My Everything
TTITLE18=Touch My Heart
TTITLE19=Walk Throuhg This World With Me
TTITLE20=It's Such A Pretty World Today
TTITLE21=If Teardrops Were Silver
TTITLE22=It Only Hurts For A Little While
TTITLE23=How Much Lonelier Can Lonely Be
TTITLE24=I's Rather Be A Fool
TTITLE25=Surely
TTITLE26=I'm Your Woman
TTITLE27=Burning A Hole In My Mind
TTITLE28=Baby's Back Again
TTITLE29=Haunted Heart
EXTD=
EXTT0=
EXTT1=
EXTT2=
EXTT3=
EXTT4=
EXTT5=
EXTT6=
EXTT7=
EXTT8=
EXTT9=
EXTT10=
EXTT11=
EXTT12=
EXTT13=
EXTT14=
EXTT15=
EXTT16=
EXTT17=
EXTT18=
EXTT19=
EXTT20=
EXTT21=
EXTT22=
EXTT23=
EXTT24=
EXTT25=
EXTT26=
EXTT27=
EXTT28=
EXTT29=
PLAYORDER=
